{
  "asset": {
    "generator": "Khronos glTF Blender I/O v1.6.16",
    "version": "2.0"
  },
  "scene": 0,
  "scenes": [
    {
      "name": "Scene",
      "nodes": [0]
    }
  ],
  "nodes": [
    {
      "mesh": 0,
      "name": "Cylinder.001"
    }
  ],
  "materials": [
    {
      "doubleSided": true,
      "name": "body",
      "pbrMetallicRoughness": {
        "baseColorFactor": [1, 0.5523614287376404, 0.24326828122138977, 1],
        "metallicFactor": 0,
        "roughnessFactor": 0.6530744433403015
      }
    }
  ],
  "meshes": [
    {
      "name": "Cylinder.002",
      "primitives": [
        {
          "attributes": {
            "POSITION": 0,
            "NORMAL": 1,
            "TEXCOORD_0": 2
          },
          "indices": 3,
          "material": 0
        }
      ]
    }
  ],
  "accessors": [
    {
      "bufferView": 0,
      "componentType": 5126,
      "count": 1075,
      "max": [0.10065536201000214, 0.10065536201000214, 0.10065536201000214],
      "min": [-0.10065536201000214, -0.18068772554397583, -0.10065536201000214],
      "type": "VEC3"
    },
    {
      "bufferView": 1,
      "componentType": 5126,
      "count": 1075,
      "type": "VEC3"
    },
    {
      "bufferView": 2,
      "componentType": 5126,
      "count": 1075,
      "type": "VEC2"
    },
    {
      "bufferView": 3,
      "componentType": 5123,
      "count": 1728,
      "type": "SCALAR"
    }
  ],
  "bufferViews": [
    {
      "buffer": 0,
      "byteLength": 12900,
      "byteOffset": 0
    },
    {
      "buffer": 0,
      "byteLength": 12900,
      "byteOffset": 12900
    },
    {
      "buffer": 0,
      "byteLength": 8600,
      "byteOffset": 25800
    },
    {
      "buffer": 0,
      "byteLength": 3456,
      "byteOffset": 34400
    }
  ],
  "buffers": [
    {
      "byteLength": 37856,
      "uri": "data:application/octet-stream;base64,"
    }
  ]
}
